{"title":"Banshee Season 1 S01 1080p Bluray x265 HEVC AAC 5.1 JoyBell","uid":12797666,"size":4215875013,"categoryP":"video","categoryS":"hd___tv_shows","magnet":"?xt=urn:btih:2e6abf6c68469e975a9a0e861d353bc3b0db1559&amp;dn=Banshee+Season+1+S01+1080p+Bluray+x265+HEVC+AAC+5.1+JoyBell&amp;tr=udp%3A%2F%2Ftracker.leechers-paradise.org%3A6969&amp;tr=udp%3A%2F%2Fzer0day.ch%3A1337&amp;tr=udp%3A%2F%2Fopen.demonii.com%3A1337&amp;tr=udp%3A%2F%2Ftracker.coppersurfer.tk%3A6969&amp;tr=udp%3A%2F%2Fexodus.desync.com%3A6969","seeders":29,"leechers":13,"uploader":"garumon","files":11,"time":1448002575,"description":"Banshee Season 1 S01 1080p Bluray x265 HEVC AAC 5.1 (Size: 3.93 GB)\r\n\r\nBanshee S01E01 1080p x265.m4v \t466.95 MB\r\nBanshee S01E10 1080p x265.m4v \t445.44 MB\r\nBanshee S01E04 1080p x265.m4v \t444.11 MB\r\nBanshee S01E06 1080p x265.m4v \t418.85 MB\r\nBanshee S01E02 1080p x265.m4v \t399.63 MB\r\nBanshee S01E05 1080p x265.m4v \t398.97 MB\r\nBanshee S01E08 1080p x265.m4v \t382.14 MB\r\nBanshee S01E03 1080p x265.m4v \t376.52 MB\r\nBanshee S01E09 1080p x265.m4v \t348.21 MB\r\nBanshee S01E07 1080p x265.m4v \t339.75 MB\r\n\r\nDescription\r\n\r\n\r\n**DON'T DOWNLOAD IF YOU ARE NOT GOING TO SEED**\r\n\r\n\r\nBanshee Season 1, in 1080p in x265 aka HEVC and AAC 5.1 audio all for about 390mb each!\r\nEncoded using the time consuming 2 pass, from the blu-ray source, for the highest quality possible.\r\n\r\n\r\n\r\nAny questions, or help playing this file, click on the HEVC banner just above.\r\nPlease watch before rating or commenting on quality.\r\n\r\n\r\n\r\n\r\nEncoding info:\r\n\r\n\r\nFormat : MPEG-4\r\nFormat profile : Base Media / Version 2\r\nCodec ID : mp42\r\nFile size : 467 MiB\r\nDuration : 59mn 34s\r\nOverall bit rate mode : Variable\r\nOverall bit rate : 1 096 Kbps\r\nWriting application : HandBrake 0.10.0 2014112200\r\n\r\nVideo\r\nID : 1\r\nFormat : HEVC\r\nFormat/Info : High Efficiency Video Coding\r\nFormat profile :   \r\nCodec ID : hev1\r\nCodec ID/Info : High Efficiency Video Coding\r\nDuration : 59mn 33s\r\nBit rate : 899 Kbps\r\nWidth : 1 920 pixels\r\nHeight : 1 080 pixels\r\nDisplay aspect ratio : 16:9\r\nFrame rate mode : Variable\r\nFrame rate : 23.976 fps\r\nMinimum frame rate : 23.974 fps\r\nMaximum frame rate : 23.981 fps\r\nColor space : YUV\r\nChroma subsampling : 4:2:0\r\nBit depth : 8 bits\r\nBits/(Pixel*Frame) : 0.018\r\nStream size : 383 MiB (82%)\r\nWriting library : x265 1.4:[Windows][GCC 4.9.0][64 bit]\r\nEncoding settings : wpp / ctu=64 / tu-intra-depth=1 / tu-inter-depth=1 / me=1 / subme=2 / merange=57 / no-rect / no-amp / max-merge=2 / temporal-mvp / no-early-skip / no-fast-cbf / rdpenalty=0 / no-tskip / no-tskip-fast / strong-intra-smoothing / no-lossless / no-cu-lossless / no-constrained-intra / no-fast-intra / open-gop / interlace=0 / keyint=240 / min-keyint=24 / scenecut=40 / rc-lookahead=20 / bframes=4 / bframe-bias=0 / b-adapt=2 / ref=3 / weightp / no-weightb / aq-mode=2 / aq-strength=1.00 / cbqpoffs=0 / crqpoffs=0 / rd=3 / psy-rd=0.00 / psy-rdoq=0.00 / signhide / lft / sao / no-sao-non-deblock / b-pyramid / cutree / rc=2 / pass / bitrate=900 / ratetol=1.0 / qcomp=0.60 / qpmin=0 / qpmax=51 / qpstep=4 / cplxblur=20.0 / qblur=0.5 / ipratio=1.40 / pbratio=1.30\r\nColor primaries : BT.709\r\nTransfer characteristics : BT.709\r\nMatrix coefficients : BT.709\r\nColor range : Limited\r\n\r\nAudio\r\nID : 2\r\nFormat : AAC\r\nFormat/Info : Advanced Audio Codec\r\nFormat profile : HE-AAC / LC\r\nCodec ID : 40\r\nDuration : 59mn 34s\r\nBit rate mode : Variable\r\nBit rate : 192 Kbps\r\nChannel(s) : 2 channels\r\nChannel(s)_Original : 6 channels\r\nChannel positions : Front: L C R, Side: L R, LFE\r\nSampling rate : 48.0 KHz / 24.0 KHz\r\nCompression mode : Lossy\r\nStream size : 81.8 MiB (18%)\r\nTitle : Surround / Surround\r\nLanguage : English\r\n\r\nMenu\r\nID : 3\r\nCodec ID : text\r\nDuration : 59mn 33s\r\nLanguage : English\r\nBit rate mode : CBR\r\n00:00:00.000 : 00:00:00.000\r\n00:07:41.608 : 00:07:38.249\r\n00:14:38.775 : 00:14:28.701\r\n00:24:02.672 : 00:23:52.598\r\n00:33:16.183 : 00:33:14.075\r\n00:40:15.185 : 00:40:05.111\r\n00:48:07.115 : 00:48:01.796\r\n00:58:03.168 : 00:58:02.979\r\n\r\n\r\n\r\nSource:\r\nTorrent: Banshee S01 Season 1 1080p BluRay x264-ROVERS","torrent":{"xt":"urn:btih:2e6abf6c68469e975a9a0e861d353bc3b0db1559","amp;dn":"Banshee+Season+1+S01+1080p+Bluray+x265+HEVC+AAC+5.1+JoyBell","amp;tr":["udp%3A%2F%2Ftracker.leechers-paradise.org%3A6969","udp%3A%2F%2Fzer0day.ch%3A1337","udp%3A%2F%2Fopen.demonii.com%3A1337","udp%3A%2F%2Ftracker.coppersurfer.tk%3A6969","udp%3A%2F%2Fexodus.desync.com%3A6969"],"infoHash":"2e6abf6c68469e975a9a0e861d353bc3b0db1559","infoHashBuffer":{"type":"Buffer","data":[46,106,191,108,104,70,158,151,90,154,14,134,29,53,59,195,176,219,21,89]},"announce":[],"urlList":[]}}